<svg xmlns="http://www.w3.org/2000/svg" xmlns:xlink="http://www.w3.org/1999/xlink" width="1920" zoomAndPan="magnify" viewBox="0 0 1440 809.999993" height="1080" preserveAspectRatio="xMidYMid meet" version="1.2"><g id="a8c551879b"><rect x="0" width="1440" y="0" height="809.999993" style="fill:#ffffff;fill-opacity:1;stroke:none;"/><rect x="0" width="1440" y="0" height="809.999993" style="fill:#ffffff;fill-opacity:1;stroke:none;"/><path style=" stroke:none;fill-rule:evenodd;fill:#2d0402;fill-opacity:1;" d="M 778.773438 377.675781 L 807.65625 377.675781 L 807.699219 484.3125 L 778.269531 483.765625 Z M 631.046875 484.539062 C 633.933594 470.390625 650.289062 430.917969 655.929688 413.929688 C 664.039062 389.546875 673.355469 370.8125 678.15625 343.660156 L 715.226562 343.6875 L 765.261719 484.1875 L 733.03125 484.199219 L 721.757812 450.464844 L 672.441406 450.660156 L 661.816406 484.257812 Z M 787.121094 334.742188 C 796.820312 330.960938 805.433594 335.65625 808.289062 342.828125 C 811.964844 352.070312 807.460938 362.109375 799.945312 365.328125 C 779.394531 374.117188 764.941406 343.390625 787.121094 334.742188 Z M 878.605469 516.320312 C 880.957031 501.875 879.421875 384.988281 879.421875 360.226562 C 879.421875 338.386719 882.464844 304.859375 874.382812 286.578125 C 867.375 270.746094 850.597656 255.882812 828.671875 253.433594 C 813.582031 251.761719 696.707031 253.011719 671.144531 253.054688 C 632.382812 253.097656 572.144531 243.027344 561.828125 300.164062 C 559.253906 314.410156 560.886719 432.546875 560.886719 457.257812 C 560.886719 480.359375 557.675781 511.242188 566.277344 531.042969 C 573.128906 546.820312 590.089844 561.867188 612.242188 563.722656 C 633.554688 565.523438 739.421875 564.03125 769.667969 564.003906 C 789.839844 563.992188 827.753906 567.042969 844.125 559.84375 C 860.761719 552.542969 875.089844 537.945312 878.605469 516.320312 Z M 878.605469 516.320312 "/><path style=" stroke:none;fill-rule:evenodd;fill:#fa9a08;fill-opacity:1;" d="M 696.960938 370.433594 L 712.652344 423.015625 L 680.730469 422.773438 Z M 631.046875 484.539062 L 661.816406 484.257812 L 672.441406 450.660156 L 721.757812 450.464844 L 733.03125 484.199219 L 765.261719 484.1875 L 715.226562 343.6875 L 678.15625 343.660156 C 673.355469 370.8125 664.039062 389.546875 655.929688 413.929688 C 650.289062 430.917969 633.933594 470.390625 631.046875 484.539062 Z M 631.046875 484.539062 "/><path style=" stroke:none;fill-rule:evenodd;fill:#fe9a01;fill-opacity:1;" d="M 782.308594 380.503906 C 778.914062 395.59375 781.957031 458.042969 780.492188 481.148438 C 787.445312 482.148438 797.480469 482.75 804.136719 480.753906 C 805.574219 472.667969 805.234375 386.621094 803.460938 380.796875 Z M 782.308594 380.503906 "/><path style=" stroke:none;fill-rule:evenodd;fill:#fa9a08;fill-opacity:1;" d="M 787.121094 334.742188 C 764.941406 343.390625 779.394531 374.117188 799.945312 365.328125 C 807.460938 362.109375 811.964844 352.070312 808.289062 342.828125 C 805.433594 335.65625 796.820312 330.960938 787.121094 334.742188 Z M 787.121094 334.742188 "/><path style=" stroke:none;fill-rule:evenodd;fill:#2d0402;fill-opacity:1;" d="M 680.730469 422.773438 L 712.652344 423.015625 L 696.960938 370.433594 Z M 680.730469 422.773438 "/><path style=" stroke:none;fill-rule:evenodd;fill:#f7a627;fill-opacity:1;" d="M 782.308594 380.503906 L 803.460938 380.796875 C 805.234375 386.621094 805.574219 472.667969 804.136719 480.753906 C 797.480469 482.75 787.445312 482.148438 780.492188 481.148438 C 781.957031 458.042969 778.917969 395.59375 782.308594 380.503906 Z M 778.269531 483.765625 L 807.699219 484.3125 L 807.65625 377.675781 L 778.773438 377.675781 Z M 778.269531 483.765625 "/></g></svg>