<svg xmlns="http://www.w3.org/2000/svg" xmlns:xlink="http://www.w3.org/1999/xlink" width="1920" zoomAndPan="magnify" viewBox="0 0 1440 809.999993" height="1080" preserveAspectRatio="xMidYMid meet" version="1.2"><g id="f525ffb060"><rect x="0" width="1440" y="0" height="809.999993" style="fill:#ffffff;fill-opacity:1;stroke:none;"/><rect x="0" width="1440" y="0" height="809.999993" style="fill:#ffffff;fill-opacity:1;stroke:none;"/><path style=" stroke:none;fill-rule:evenodd;fill:#001e36;fill-opacity:1;" d="M 744.101562 442.074219 C 751.488281 441.597656 763.113281 446.789062 772.238281 447.738281 C 781.320312 448.6875 796.757812 446.90625 790.476562 436.652344 C 785.417969 428.382812 760.328125 426.371094 748.730469 410.679688 C 736.6875 394.402344 746.1875 371.363281 760.011719 364.863281 C 781.941406 354.582031 795.363281 359.613281 816.085938 364.617188 L 815.695312 391.410156 C 803.667969 386.390625 785.160156 378.207031 773.734375 388.21875 C 773.792969 398.285156 778.535156 398.601562 787.488281 402.050781 C 805.894531 409.15625 830.050781 422.414062 819.691406 449.0625 C 815.179688 460.683594 803.640625 469.484375 787.945312 472.015625 C 775.457031 474.042969 753.355469 472.042969 744.160156 465.386719 Z M 627.214844 327.960938 C 639.988281 326.8125 682.46875 326.609375 693.433594 329.226562 C 723.265625 336.359375 746.1875 379.734375 712.503906 412.246094 C 696.75 427.433594 682.265625 423.824219 657.433594 424.875 L 656.929688 468.867188 L 627.34375 468.449219 Z M 553.234375 512.296875 C 555.847656 535.851562 570.019531 550.476562 586.558594 558.628906 C 603.53125 567 640.535156 563.9375 661.585938 563.9375 C 713.507812 563.9375 771.347656 566.351562 822.535156 563.90625 C 846.894531 562.742188 863.636719 548.277344 871.683594 532.703125 C 881.238281 514.195312 878.164062 482.339844 878.164062 459.085938 C 878.164062 432.238281 878.164062 405.402344 878.164062 378.554688 C 878.164062 327.976562 889.820312 272.164062 844.496094 251.46875 C 825.972656 243.027344 792.242188 245.875 769.367188 245.875 C 732.546875 245.875 637.917969 244.121094 608.34375 246.035156 C 584.589844 247.558594 567.53125 261.4375 559.226562 277.585938 C 549.726562 296.035156 552.890625 328.738281 552.890625 351.230469 C 552.890625 378.078125 552.890625 404.914062 552.890625 431.761719 C 552.890625 455.074219 550.792969 490.40625 553.234375 512.296875 Z M 553.234375 512.296875 "/><path style=" stroke:none;fill-rule:evenodd;fill:#32aafc;fill-opacity:1;" d="M 657.550781 398.601562 L 657.289062 353.6875 C 666.011719 353.199219 680.253906 352.292969 687.296875 355.6875 C 700.273438 361.957031 717.402344 403.101562 657.550781 398.601562 Z M 627.34375 468.449219 L 656.929688 468.867188 L 657.433594 424.875 C 682.265625 423.824219 696.75 427.433594 712.503906 412.246094 C 746.1875 379.734375 723.265625 336.359375 693.433594 329.226562 C 682.46875 326.609375 639.988281 326.8125 627.214844 327.960938 Z M 627.34375 468.449219 "/><path style=" stroke:none;fill-rule:evenodd;fill:#36a8f6;fill-opacity:1;" d="M 744.101562 442.074219 L 744.160156 465.386719 C 753.355469 472.042969 775.457031 474.042969 787.945312 472.015625 C 803.640625 469.484375 815.179688 460.683594 819.691406 449.0625 C 830.050781 422.414062 805.894531 409.15625 787.488281 402.050781 C 778.535156 398.601562 773.792969 398.285156 773.734375 388.21875 C 785.160156 378.207031 803.667969 386.390625 815.695312 391.410156 L 816.085938 364.617188 C 795.363281 359.613281 781.941406 354.582031 760.011719 364.863281 C 746.1875 371.363281 736.6875 394.402344 748.730469 410.679688 C 760.328125 426.371094 785.417969 428.382812 790.476562 436.652344 C 796.757812 446.90625 781.320312 448.6875 772.238281 447.738281 C 763.113281 446.789062 751.488281 441.597656 744.101562 442.074219 Z M 744.101562 442.074219 "/><path style=" stroke:none;fill-rule:evenodd;fill:#001e36;fill-opacity:1;" d="M 657.550781 398.601562 C 717.402344 403.101562 700.273438 361.957031 687.296875 355.6875 C 680.253906 352.292969 666.011719 353.199219 657.289062 353.6875 Z M 657.550781 398.601562 "/></g></svg>