<svg xmlns="http://www.w3.org/2000/svg" xmlns:xlink="http://www.w3.org/1999/xlink" width="1920" zoomAndPan="magnify" viewBox="0 0 1440 809.999993" height="1080" preserveAspectRatio="xMidYMid meet" version="1.2"><g id="927d6f3848"><rect x="0" width="1440" y="0" height="809.999993" style="fill:#ffffff;fill-opacity:1;stroke:none;"/><rect x="0" width="1440" y="0" height="809.999993" style="fill:#ffffff;fill-opacity:1;stroke:none;"/><path style=" stroke:none;fill-rule:evenodd;fill:#01005d;fill-opacity:1;" d="M 774.519531 413.945312 L 774.746094 470.957031 L 746.675781 470.757812 L 746.632812 364.65625 L 774.519531 364.695312 L 774.589844 376.699219 C 779.511719 375.007812 790.539062 360.949219 811.363281 362.050781 L 811.332031 390.421875 C 798.800781 394 774.519531 389.363281 774.519531 413.945312 Z M 658.371094 428.171875 C 654.890625 436.214844 657.679688 460.078125 657.496094 470.984375 L 628.144531 470.6875 L 628.214844 332.085938 C 664.503906 333.4375 713.429688 321.421875 725.835938 366.0625 C 731.335938 385.828125 725.554688 402.253906 711.851562 415.4375 C 691.476562 435.019531 673.808594 422.296875 658.371094 428.171875 Z M 878.882812 508.328125 C 881.039062 496.929688 879.546875 374.429688 879.546875 351.960938 C 879.546875 328.847656 882.660156 297.742188 874.132812 278.542969 C 867.222656 262.988281 850.121094 247.847656 827.421875 245.902344 C 807.214844 244.15625 699.105469 245.675781 669.453125 245.675781 C 648.460938 245.691406 611.5625 242.972656 594.546875 250.351562 C 578.0625 257.507812 564.34375 272.851562 561.046875 294.375 C 558.886719 308.40625 560.4375 427.058594 560.410156 451.980469 C 560.398438 473.390625 557.519531 508.777344 566.136719 525.585938 C 573.75 540.433594 591.246094 555.421875 613.28125 557.054688 C 637.460938 558.84375 738.484375 557.222656 770.96875 557.210938 C 814.070312 557.195312 867.800781 566.945312 878.882812 508.328125 Z M 878.882812 508.328125 "/><path style=" stroke:none;fill-rule:evenodd;fill:#9999fc;fill-opacity:1;" d="M 657.285156 358.089844 C 678.011719 354.457031 699.5 358.949219 698.949219 380.121094 C 698.355469 402.621094 674.953125 403.660156 657.554688 401.632812 Z M 658.371094 428.171875 C 673.808594 422.296875 691.476562 435.019531 711.851562 415.4375 C 725.554688 402.253906 731.335938 385.828125 725.835938 366.0625 C 713.429688 321.421875 664.503906 333.4375 628.214844 332.085938 L 628.144531 470.6875 L 657.496094 470.984375 C 657.679688 460.078125 654.890625 436.214844 658.371094 428.171875 Z M 658.371094 428.171875 "/><path style=" stroke:none;fill-rule:evenodd;fill:#9c9bfc;fill-opacity:1;" d="M 774.519531 413.945312 C 774.519531 389.363281 798.800781 394 811.332031 390.421875 L 811.363281 362.050781 C 790.539062 360.949219 779.511719 375.007812 774.589844 376.699219 L 774.519531 364.695312 L 746.632812 364.65625 L 746.675781 470.757812 L 774.746094 470.957031 Z M 774.519531 413.945312 "/><path style=" stroke:none;fill-rule:evenodd;fill:#02025e;fill-opacity:1;" d="M 657.554688 401.632812 C 674.953125 403.660156 698.355469 402.621094 698.949219 380.121094 C 699.5 358.949219 678.011719 354.457031 657.285156 358.089844 Z M 657.554688 401.632812 "/></g></svg>